PathFileType	4	(X/Y/Z)	c:/Users/goper/Files/vsCode/490R/osim_files/C17/C17_Slow_03.trc
DataRate	CameraRate	NumFrames	NumMarkers	Units                	OrigDataRate	OrigDataStartFrame	OrigNumFrames
250.00	250.00	8	36	mm	250.0	1783	2377
                Frame#	Time	LPSIS			LASIS			LTH1			LTH2			LTH3			LTH4			LLFE			LMFE			LSH1			LSH2			LSH3			LSH4			LLMAL			LMMAL			LCAL			LMTP5			LTOE			LMTP1			RPSIS			RASIS			RTH1			RTH2			RTH3			RTH4			RLFE			RMFE			RSH1			RSH2			RSH3			RSH4			RLMAL			RMMAL			RCAL			RMTP1			RTOE			RMTP5		
		X1	Y1	Z1	X2	Y2	Z2	X3	Y3	Z3	X4	Y4	Z4	X5	Y5	Z5	X6	Y6	Z6	X7	Y7	Z7	X8	Y8	Z8	X9	Y9	Z9	X10	Y10	Z10	X11	Y11	Z11	X12	Y12	Z12	X13	Y13	Z13	X14	Y14	Z14	X15	Y15	Z15	X16	Y16	Z16	X17	Y17	Z17	X18	Y18	Z18	X19	Y19	Z19	X20	Y20	Z20	X21	Y21	Z21	X22	Y22	Z22	X23	Y23	Z23	X24	Y24	Z24	X25	Y25	Z25	X26	Y26	Z26	X27	Y27	Z27	X28	Y28	Z28	X29	Y29	Z29	X30	Y30	Z30	X31	Y31	Z31	X32	Y32	Z32	X33	Y33	Z33	X34	Y34	Z34	X35	Y35	Z35	X36	Y36	Z36

1783	7.12800	0.00000	0.00000	0.00000	-3168.94897	1064.64197	429.93042	0.00000	0.00000	0.00000	-3086.01196	684.05487	431.64673	-3138.09009	737.54474	448.85703	-3138.47632	693.11761	437.40277	-3098.87476	520.51263	389.38104	-3107.70654	531.33771	270.12146	-3060.65356	274.65073	370.64584	-3020.72900	251.57022	358.41296	0.00000	0.00000	0.00000	0.00000	0.00000	0.00000	-3028.80322	111.51031	327.54782	0.00000	0.00000	0.00000	0.00000	0.00000	0.00000	0.00000	0.00000	0.00000	-3124.91504	22.63737	279.99487	0.00000	0.00000	0.00000	0.00000	0.00000	0.00000	-3162.82861	1070.44019	159.04073	-3271.77686	811.91760	108.06202	0.00000	0.00000	0.00000	0.00000	0.00000	0.00000	-3240.14404	746.47736	104.70752	-3255.94629	529.57251	114.16664	-3280.21338	554.99493	242.44324	-3116.76733	374.76764	98.09242	-3098.89014	329.47296	111.93599	0.00000	0.00000	0.00000	0.00000	0.00000	0.00000	-3040.58643	163.79877	131.75412	0.00000	0.00000	0.00000	-2973.89014	143.03128	188.83649	-3211.54590	102.80741	174.59773	0.00000	0.00000	0.00000	-3133.77686	79.03361	92.60921
1784	7.13200	0.00000	0.00000	0.00000	-3173.13379	1064.74768	430.21494	-3080.21191	729.88110	438.31830	-3087.83105	684.43439	431.52841	-3140.17798	737.58966	448.86975	-3143.13843	692.99072	437.12155	-3099.71484	520.68060	389.40579	0.00000	0.00000	0.00000	-3061.00122	274.87555	370.75653	-3020.98145	251.91861	358.48245	0.00000	0.00000	0.00000	0.00000	0.00000	0.00000	-3028.94360	111.69052	327.54303	-3042.54419	125.43336	240.22765	-2954.50220	77.02666	278.89542	0.00000	0.00000	0.00000	-3124.93384	22.56770	280.00665	0.00000	0.00000	0.00000	0.00000	0.00000	0.00000	-3167.27051	1070.67468	159.34070	-3278.01001	812.96057	108.42445	0.00000	0.00000	0.00000	0.00000	0.00000	0.00000	-3246.08008	747.29889	105.06160	-3263.31738	530.68433	114.69595	-3287.67847	555.79633	242.98845	-3127.18237	372.98306	98.56841	0.00000	0.00000	0.00000	0.00000	0.00000	0.00000	-3201.96387	344.43665	78.45008	0.00000	0.00000	0.00000	-3087.65747	140.89177	178.04047	-2989.20776	138.24533	189.00833	0.00000	0.00000	0.00000	-3174.91846	777.04169	88.97931	0.00000	0.00000	0.00000
1785	7.13600	0.00000	0.00000	0.00000	-3177.05713	1064.73047	430.48972	0.00000	0.00000	0.00000	-3089.71826	684.93774	431.83966	-3142.20093	737.56995	448.88928	-3145.02368	693.09619	437.09778	-3100.38818	520.93817	389.44540	0.00000	0.00000	0.00000	-3061.39429	275.12610	370.85367	-3021.21777	252.17299	358.52438	0.00000	0.00000	0.00000	0.00000	0.00000	0.00000	-3028.44067	111.76227	326.41364	0.00000	0.00000	0.00000	0.00000	0.00000	0.00000	-3019.31152	223.69057	265.11215	0.00000	0.00000	0.00000	-2995.12329	136.55664	185.57137	-2981.45386	1107.47974	245.66853	-3171.67773	1070.77563	159.63246	-3284.32300	813.94269	108.81766	0.00000	0.00000	0.00000	0.00000	0.00000	0.00000	-3252.11377	748.11926	105.42546	-3270.36328	531.57599	115.23228	-3295.16943	556.63049	243.58585	-3137.68896	371.18719	99.07025	0.00000	0.00000	0.00000	0.00000	0.00000	0.00000	-3170.54956	303.05228	114.52960	-3114.29150	161.12080	219.11096	0.00000	0.00000	0.00000	-3021.63672	132.86972	172.68329	-3141.39233	55.58778	345.65430	0.00000	0.00000	0.00000	-3206.85742	41.35081	240.71445
1786	7.14000	0.00000	0.00000	0.00000	-3181.24170	1064.79956	430.78070	-3084.40967	730.62726	438.38336	-3091.45679	685.28473	431.43863	-3144.31226	737.60651	448.89722	-3148.17163	693.73743	439.79285	-3101.32886	521.06049	389.41293	-3103.66016	533.91034	267.88470	-3061.89551	275.42065	370.94495	-3021.53955	252.49104	358.59180	0.00000	0.00000	0.00000	0.00000	0.00000	0.00000	-3029.17407	111.98055	327.57449	-3042.68726	125.82458	240.01402	0.00000	0.00000	0.00000	-3023.24976	221.82475	268.32944	-3081.30005	242.91211	351.95837	0.00000	0.00000	0.00000	0.00000	0.00000	0.00000	-3176.13916	1070.95178	159.90613	-3290.48364	814.82739	109.26772	0.00000	0.00000	0.00000	0.00000	0.00000	0.00000	-3257.95752	748.80072	105.83491	-3277.44458	532.42883	115.78654	-3302.48413	557.45135	244.21004	-3148.01831	369.25549	99.59023	0.00000	0.00000	0.00000	0.00000	0.00000	0.00000	0.00000	0.00000	0.00000	0.00000	0.00000	0.00000	-3035.64062	244.82033	94.98108	-3037.82422	129.08321	172.99078	0.00000	0.00000	0.00000	-3185.81616	777.50684	89.36753	0.00000	0.00000	0.00000
1787	7.14400	0.00000	0.00000	0.00000	-3185.32422	1064.76587	431.03531	-3086.36987	731.06720	438.26013	-3093.36035	685.69678	431.74255	-3146.44092	737.59576	448.88864	-3148.78271	693.15601	437.08908	-3101.98462	521.28217	389.45255	-3111.80225	531.85773	270.46100	-3062.36890	275.71179	371.00098	-3021.91968	252.72437	358.65601	0.00000	0.00000	0.00000	0.00000	0.00000	0.00000	-3029.28613	112.10264	327.60178	-3044.40723	125.54119	241.00868	0.00000	0.00000	0.00000	0.00000	0.00000	0.00000	0.00000	0.00000	0.00000	-3094.01074	-4.50933	278.85919	0.00000	0.00000	0.00000	-3180.45068	1070.90381	160.21878	-3296.52344	815.60474	109.74370	0.00000	0.00000	0.00000	0.00000	0.00000	0.00000	-3263.78979	749.47650	106.28217	-3284.65820	533.37646	116.41202	-3309.77100	558.23047	244.84984	-3158.57007	367.39368	100.11548	0.00000	0.00000	0.00000	0.00000	0.00000	0.00000	0.00000	0.00000	0.00000	-3144.98999	158.00217	222.05803	0.00000	0.00000	0.00000	-3053.94434	125.37132	173.36493	0.00000	0.00000	0.00000	-3191.02271	777.61200	89.64328	0.00000	0.00000	0.00000
1788	7.14800	0.00000	0.00000	0.00000	-3189.38696	1064.70996	431.35010	-3088.44482	731.43793	438.11234	-3095.14648	685.93610	431.29166	-3148.66113	737.65790	448.87973	-3150.67505	693.15302	437.03986	-3102.98706	521.41803	389.42783	-3112.70264	531.93500	270.50055	0.00000	0.00000	0.00000	-3022.18359	253.02451	358.73990	-3084.39233	285.55249	369.22928	0.00000	0.00000	0.00000	-3029.36914	112.25551	327.62445	-3045.55933	125.55088	242.18936	0.00000	0.00000	0.00000	-3142.67578	56.20273	348.36163	-3094.05908	-4.54339	278.85413	0.00000	0.00000	0.00000	0.00000	0.00000	0.00000	-3184.92261	1070.98596	160.51350	-3302.60547	816.41193	110.25149	0.00000	0.00000	0.00000	0.00000	0.00000	0.00000	-3269.53320	750.03815	106.79006	-3291.55493	534.13312	117.04161	-3316.89624	559.01349	245.54242	-3169.21289	365.55200	100.67055	0.00000	0.00000	0.00000	0.00000	0.00000	0.00000	0.00000	0.00000	0.00000	0.00000	0.00000	0.00000	0.00000	0.00000	0.00000	-3070.22241	121.63809	173.83577	-3284.52026	20.54693	149.04730	0.00000	0.00000	0.00000	-3240.46606	63.16645	227.48012
1789	7.15200	0.00000	0.00000	0.00000	-3193.64673	1064.72168	431.63531	0.00000	0.00000	0.00000	-3097.05981	686.23590	431.23697	-3150.72705	737.68219	448.86731	-3152.59009	693.15198	436.97421	-3103.70898	521.63684	389.45193	0.00000	0.00000	0.00000	0.00000	0.00000	0.00000	0.00000	0.00000	0.00000	-3086.04639	286.40717	372.07956	0.00000	0.00000	0.00000	-3029.47974	112.43007	327.63702	-3045.64526	125.69775	242.21902	-2945.82275	81.89211	276.04715	0.00000	0.00000	0.00000	0.00000	0.00000	0.00000	-3129.12891	145.59392	135.27411	-2998.60791	1107.69629	244.94289	-3189.38208	1070.98730	160.76099	-3308.60352	817.08392	110.79520	0.00000	0.00000	0.00000	0.00000	0.00000	0.00000	-3275.22998	750.58496	107.29318	-3298.35547	534.78949	117.71511	-3323.77710	559.74030	246.22336	-3179.76611	363.65765	101.23132	0.00000	0.00000	0.00000	0.00000	0.00000	0.00000	0.00000	0.00000	0.00000	-3171.85815	152.99690	222.16615	0.00000	0.00000	0.00000	-3086.43701	118.15139	174.35925	0.00000	0.00000	0.00000	-2998.39551	628.64050	353.72385	0.00000	0.00000	0.00000
1790	7.15600	0.00000	0.00000	0.00000	-3197.65674	1064.58008	431.92648	0.00000	0.00000	0.00000	-3102.66846	685.69952	434.96817	-3152.95044	737.72931	448.80499	-3154.55957	693.19537	436.90784	-3104.64600	521.81805	389.37128	0.00000	0.00000	0.00000	0.00000	0.00000	0.00000	0.00000	0.00000	0.00000	-3086.36401	286.55298	372.14243	0.00000	0.00000	0.00000	-3029.53687	112.57333	327.63434	-3044.63965	125.97511	241.06099	-2945.46387	82.38082	276.16455	-3142.68774	56.16798	348.39114	-3094.18262	-4.54857	278.87143	0.00000	0.00000	0.00000	0.00000	0.00000	0.00000	-3193.69189	1070.93835	161.08768	-3314.56787	817.80786	111.35008	0.00000	0.00000	0.00000	0.00000	0.00000	0.00000	-3280.86938	751.03589	107.80672	-3305.37646	535.52429	118.40644	-3330.70386	560.56378	246.96710	-3190.52490	361.83063	101.82962	0.00000	0.00000	0.00000	0.00000	0.00000	0.00000	0.00000	0.00000	0.00000	-3173.70239	161.65820	227.43988	-3148.60815	141.81889	137.16731	0.00000	0.00000	0.00000	-3250.65186	170.69527	231.21878	0.00000	0.00000	0.00000	-3206.97559	40.89746	240.78461
